<svg width="32" height="32" viewBox="0 0 32 32" fill="none" xmlns="http://www.w3.org/2000/svg">
<path d="M14.1689 14.464H15.5356C15.7664 14.464 15.9876 14.5556 16.1508 14.7188C16.314 14.8819 16.4056 15.1032 16.4056 15.334C16.4056 15.5647 16.314 15.786 16.1508 15.9492C15.9876 16.1123 15.7664 16.204 15.5356 16.204H9.81917C9.07757 16.204 8.36634 16.4986 7.84194 17.023C7.31755 17.5474 7.02295 18.2586 7.02295 19.0002C7.02295 19.7418 7.31755 20.453 7.84194 20.9774C8.36634 21.5018 9.07757 21.7964 9.81917 21.7964H12.4058L12.4734 19.9324H9.94362C9.46317 19.9324 9.00362 19.536 9.00362 19.0555C9.00362 18.5751 9.46317 18.1924 9.94362 18.1924H15.4738C16.2154 18.1924 16.9267 17.8978 17.4511 17.3734C17.9755 16.849 18.2701 16.1378 18.2701 15.3962C18.2701 14.6546 17.9755 13.9434 17.4511 13.419C16.9267 12.8946 16.2154 12.6 15.4738 12.6H14.1689V14.464Z" fill="#B1CC33" stroke="#B1CC33" stroke-width="0.45" stroke-miterlimit="10" stroke-linecap="round" stroke-linejoin="round"/>
<path d="M11.4142 23.5364H14.1946C14.6711 23.5364 15.0862 23.1693 15.1004 22.6933C15.1041 22.5769 15.0843 22.4609 15.0422 22.3522C15.0001 22.2436 14.9367 22.1445 14.8556 22.0609C14.7745 21.9772 14.6775 21.9107 14.5702 21.8653C14.4629 21.8198 14.3476 21.7964 14.2311 21.7964V19.9324H14.3506C15.8666 19.9324 17.1582 21.1115 17.212 22.6267C17.2257 23.0022 17.1636 23.3767 17.0293 23.7277C16.8951 24.0787 16.6914 24.399 16.4305 24.6695C16.1696 24.94 15.8569 25.1551 15.511 25.302C15.1651 25.4489 14.7931 25.5246 14.4173 25.5244H9.50842C9.58618 25.1353 9.7484 24.7681 9.98362 24.4485C10.2188 24.129 10.5213 23.865 10.8698 23.6751C11.0367 23.5842 11.2241 23.5365 11.4142 23.5364Z" fill="#5C9E31" stroke="#5C9E31" stroke-width="0.45" stroke-miterlimit="10" stroke-linecap="round" stroke-linejoin="round"/>
<path d="M17.1226 22.024C17.1742 22.2172 17.2038 22.4181 17.2115 22.6267C17.2253 23.0022 17.1632 23.3766 17.0289 23.7276C16.8947 24.0785 16.6911 24.3988 16.4302 24.6693C16.1694 24.9398 15.8567 25.155 15.5109 25.3019C15.165 25.4488 14.7931 25.5245 14.4173 25.5244H9.50842C9.58618 25.1353 9.7484 24.7681 9.98362 24.4485C10.2188 24.129 10.5213 23.865 10.8698 23.6751C11.0368 23.5841 11.224 23.5364 11.4142 23.5364H14.1946C14.4729 23.5364 14.7302 23.4111 14.8991 23.212L17.1226 22.024Z" fill="#B1CC33" stroke="#B1CC33" stroke-width="0.5" stroke-miterlimit="10" stroke-linecap="round" stroke-linejoin="round"/>
<path d="M14.2311 21.7964H12.5618V19.9324H14.2311" fill="#5C9E31"/>
<path d="M14.2311 21.7964H12.5618V19.9324H14.2311" stroke="#5C9E31" stroke-width="0.45" stroke-miterlimit="10" stroke-linecap="round" stroke-linejoin="round"/>
<path d="M9.78538 17.7556C9.78538 17.7556 6.63738 18.3653 6.80849 20.2253C6.80849 20.2253 7.47604 21.4933 8.28582 21.6996L10.6916 22.2449H12.0218V19.4893L9.71827 19.472L9.05471 19.184L9.68849 18.4093L9.78538 17.7556Z" fill="#5C9E31"/>
<path d="M23.6129 8.83688C23.6129 10.7627 20.2796 10.8369 20.2796 10.8369L16.2645 10.8582L16.1703 10.86H8.62981C8.19647 10.86 7.79514 11.1564 7.72536 11.584C7.70431 11.7088 7.71071 11.8367 7.7441 11.9587C7.77749 12.0808 7.83709 12.1941 7.91873 12.2908C8.00037 12.3875 8.1021 12.4653 8.21684 12.5187C8.33159 12.5721 8.45658 12.5998 8.58314 12.6H12.4889L12.4596 14.464H8.57647C7.04581 14.464 5.7107 13.2844 5.66492 11.7542C5.65331 11.3799 5.71701 11.0072 5.85224 10.658C5.98746 10.3088 6.19146 9.99034 6.45212 9.72151C6.71279 9.45268 7.0248 9.23896 7.36964 9.09303C7.71449 8.9471 8.08513 8.87193 8.45958 8.87199H15.9467C16.1452 8.85961 16.3343 8.78323 16.4858 8.65431C16.6372 8.52538 16.7428 8.35086 16.7867 8.15688C16.9377 7.51637 17.3007 6.94565 17.8168 6.53729C18.3328 6.12893 18.9717 5.90686 19.6298 5.9071" fill="#B1CC33"/>
<path d="M23.6129 8.83688C23.6129 10.7627 20.2796 10.8369 20.2796 10.8369L16.2645 10.8582L16.1703 10.86H8.62981C8.19647 10.86 7.79514 11.1564 7.72536 11.584C7.70431 11.7088 7.71071 11.8367 7.7441 11.9587C7.77749 12.0808 7.83709 12.1941 7.91873 12.2908C8.00037 12.3875 8.1021 12.4653 8.21684 12.5187C8.33159 12.5721 8.45658 12.5998 8.58314 12.6H12.4889L12.4596 14.464H8.57647C7.04581 14.464 5.7107 13.2844 5.66492 11.7542C5.65331 11.3799 5.71701 11.0072 5.85224 10.658C5.98746 10.3088 6.19146 9.99034 6.45212 9.72151C6.71279 9.45268 7.0248 9.23896 7.36964 9.09303C7.71449 8.9471 8.08513 8.87193 8.45958 8.87199H15.9467C16.1452 8.85961 16.3343 8.78323 16.4858 8.65431C16.6372 8.52538 16.7428 8.35086 16.7867 8.15688C16.9377 7.51637 17.3007 6.94565 17.8168 6.53729C18.3328 6.12893 18.9717 5.90686 19.6298 5.9071" stroke="#B1CC33" stroke-width="0.45" stroke-miterlimit="10" stroke-linecap="round" stroke-linejoin="round"/>
<path d="M19.6298 5.9071C21.2422 5.9071 23.6129 7.22444 23.6129 8.83688L19.6298 5.9071Z" fill="#B1CC33"/>
<path d="M17.8022 15.5991C17.8022 15.5991 17.9404 14.6458 17.5578 14.1529C17.06 13.5116 16.3755 12.4173 15.324 12.1538H12.6462L12.728 14.9107H15.6631C16.0244 14.7893 16.224 14.8093 16.4586 14.8796C16.8475 14.9965 17.2111 15.1858 17.5444 15.4187L17.8022 15.5991ZM7.69686 12.3747C8.12486 12.7258 8.76486 12.6182 9.05464 12.1458L12.1111 12.1538L12.0755 14.9049C11.2764 14.8916 10.4378 14.9525 9.84353 14.8493C6.58797 14.2862 6.27197 12.5018 6.27197 12.5018C6.27197 12.5018 6.47153 10.416 8.66397 10.416L7.97242 11.1093C7.78666 11.1636 7.62238 11.2743 7.50231 11.4261C7.38223 11.5779 7.3123 11.7632 7.30219 11.9565L7.69686 12.3747Z" fill="#5C9E31"/>
<path d="M10.7244 19.9324H9.92444C9.69371 19.9324 9.47242 19.8408 9.30926 19.6776C9.1461 19.5144 9.05444 19.2932 9.05444 19.0624C9.05444 18.8317 9.1461 18.6104 9.30926 18.4472C9.47242 18.2841 9.69371 18.1924 9.92444 18.1924H15.4551C16.1967 18.1924 16.9079 17.8978 17.4323 17.3734C17.9567 16.849 18.2513 16.1378 18.2513 15.3962C18.2513 14.6546 17.9567 13.9434 17.4323 13.419C16.9079 12.8946 16.1967 12.6 15.4551 12.6H14.1498" stroke="black" stroke-width="0.5" stroke-miterlimit="10" stroke-linecap="round" stroke-linejoin="round"/>
<path d="M14.1498 14.464H15.5169C15.7476 14.464 15.9689 14.5557 16.1321 14.7188C16.2952 14.882 16.3869 15.1033 16.3869 15.334C16.3869 15.5647 16.2952 15.786 16.1321 15.9492C15.9689 16.1123 15.7476 16.204 15.5169 16.204H9.80001C9.0584 16.204 8.34717 16.4986 7.82278 17.023C7.29839 17.5474 7.00378 18.2586 7.00378 19.0002C7.00378 19.7418 7.29839 20.453 7.82278 20.9774C8.34717 21.5018 9.0584 21.7964 9.80001 21.7964H10.7245" stroke="black" stroke-width="0.5" stroke-miterlimit="10" stroke-linecap="round" stroke-linejoin="round"/>
<path d="M10.696 14.464H8.57599C7.04532 14.464 5.71021 13.2844 5.66443 11.7542C5.65282 11.3799 5.71652 11.0072 5.85175 10.658C5.98698 10.3088 6.19097 9.99034 6.45164 9.72151C6.7123 9.45268 7.02431 9.23896 7.36915 9.09303C7.714 8.9471 8.08465 8.87193 8.4591 8.87199H15.9467C16.1451 8.85961 16.3343 8.78323 16.4857 8.65431C16.6372 8.52538 16.7427 8.35086 16.7867 8.15688C16.9377 7.51637 17.3007 6.94565 17.8167 6.53729C18.3328 6.12893 18.9717 5.90686 19.6298 5.9071" stroke="black" stroke-width="0.5" stroke-linecap="round" stroke-linejoin="round"/>
<path d="M23.6129 8.83688C23.6129 10.7627 20.2796 10.8369 20.2796 10.8369L16.2645 10.8582L16.1703 10.86H8.62984C8.1965 10.86 7.79517 11.1564 7.72539 11.584C7.70434 11.7088 7.71074 11.8367 7.74413 11.9587C7.77752 12.0808 7.83711 12.1941 7.91876 12.2908C8.0004 12.3875 8.10213 12.4653 8.21687 12.5187C8.33161 12.5721 8.45661 12.5998 8.58317 12.6H10.6961" stroke="black" stroke-width="0.5" stroke-linecap="round" stroke-linejoin="round"/>
<path d="M19.6298 5.9071C21.2422 5.9071 23.6129 7.22444 23.6129 8.83688" stroke="black" stroke-width="0.45" stroke-linecap="round" stroke-linejoin="round"/>
<path d="M22.6578 10.5947C22.6578 10.5947 24.3441 12.3964 26.0294 12.6289M27.9587 11.6409L25.8085 12.6289L26.2734 14.6631" stroke="black" stroke-width="0.5" stroke-miterlimit="10" stroke-linecap="round"/>
<path d="M12.4734 25.8831V27.9831M12.4734 18.6036V23.0565M12.4734 11.288V15.8116M12.4734 6.68356V8.39156" stroke="black" stroke-width="0.5" stroke-linecap="round" stroke-linejoin="round"/>
<path d="M12.4733 6.68354C13.2097 6.68354 13.8067 6.08659 13.8067 5.35021C13.8067 4.61383 13.2097 4.01688 12.4733 4.01688C11.737 4.01688 11.14 4.61383 11.14 5.35021C11.14 6.08659 11.737 6.68354 12.4733 6.68354Z" fill="black"/>
<path d="M14.2311 19.9324H14.3506C15.8666 19.9324 17.1582 21.1115 17.212 22.6267C17.2257 23.0022 17.1636 23.3767 17.0293 23.7277C16.8951 24.0787 16.6914 24.399 16.4305 24.6695C16.1696 24.94 15.8569 25.1551 15.511 25.302C15.1651 25.4489 14.7931 25.5246 14.4173 25.5244H9.50842C9.58618 25.1353 9.7484 24.7681 9.98362 24.4485C10.2188 24.129 10.5213 23.865 10.8698 23.6751C11.0368 23.5841 11.224 23.5364 11.4142 23.5364H14.1946C14.6711 23.5364 15.0862 23.1693 15.1004 22.6933C15.1041 22.5769 15.0843 22.4609 15.0422 22.3522C15.0001 22.2436 14.9367 22.1445 14.8556 22.0609C14.7745 21.9772 14.6775 21.9107 14.5702 21.8653C14.4629 21.8198 14.3476 21.7964 14.2311 21.7964" stroke="black" stroke-width="0.5" stroke-miterlimit="10" stroke-linecap="round" stroke-linejoin="round"/>
</svg>
